# Hierarchical Translation and Rotation (.htr) file
# Generated by EVaRT
[Header]
FileType htr
DataType HTRS
FileVersion 1
NumSegments 23
NumFrames 4
DataFrameRate 120
EulerRotationOrder ZYX
CalibrationUnits mm
RotationUnits Degrees
GlobalAxisofGravity Y
BoneLengthAxis Y
ScaleFactor 1
[SegmentNames&Hierarchy]
#CHILD            PARENT
DaveRoot          GLOBAL
Spine1            DaveRoot
Spine2            Spine1
Spine3            Spine2
Spine4            Spine3
Neck              Spine4
Head              Neck
LClavicle         Spine4
LUpperArm         LClavicle
LLowerArm         LUpperArm
LHand             LLowerArm
RClavicle         Spine4
RUpperArm         RClavicle
RLowerArm         RUpperArm
RHand             RLowerArm
RUpperLeg         DaveRoot
RLowerLeg         RUpperLeg
RFoot             RLowerLeg
RToes             RFoot
LUpperLeg         DaveRoot
LLowerLeg         LUpperLeg
LFoot             LLowerLeg
LToes             LFoot
[BasePosition]
#SegmentName      Tx   Ty   Tz   Rx   Ry   Rz   BoneLength
DaveRoot          30.502683	1014.050144	-392.030244	16.346492	-1.112010	-1.464339	100.000000
Spine1            0.000000	100.000000	0.000000	-16.708095	0.289044	-0.213389	100.000000
Spine2            0.000000	100.000000	0.000000	4.757952	0.249599	-0.116624	100.000000
Spine3            0.000000	100.000000	0.000000	11.084253	0.260929	-0.088411	100.000000
Spine4            0.000000	100.000000	0.000000	12.228282	1.332274	1.443083	100.000000
Neck              0.000000	100.000000	0.000000	10.147668	18.171820	1.381874	80.000000
Head              0.000000	80.000000	0.000000	-46.518491	-1.401195	-5.185409	200.000000
LClavicle         0.000000	100.000000	0.000000	-3.689620	-1.992124	-101.831237	200.000000
LUpperArm         0.000000	200.000000	0.000000	-0.284445	-3.207106	1.762499	300.000000
LLowerArm         0.000000	300.000000	0.000000	9.834184	2.175812	1.895763	200.000000
LHand             0.000000	200.000000	0.000000	-2.090742	-1.768569	8.793625	120.000000
RClavicle         0.000000	100.000000	0.000000	-0.558465	-3.870894	107.984856	200.000000
RUpperArm         0.000000	200.000000	0.000000	6.860362	-6.098052	-15.811317	300.000000
RLowerArm         0.000000	300.000000	0.000000	5.698581	-3.682026	-7.348670	200.000000
RHand             0.000000	200.000000	0.000000	-4.626921	6.468423	-3.971303	120.000000
RUpperLeg         -115.911102	-10.000000	31.058285	22.974686	25.481186	-170.503396	530.000000
RLowerLeg         0.000000	530.000000	0.000000	-7.725558	0.479387	-2.520024	460.000000
RFoot             0.000000	460.000000	0.000000	81.786251	-5.006629	-0.462861	130.000000
RToes             0.000000	130.000000	0.000000	20.181248	0.005479	-0.002881	100.000000
LUpperLeg         115.911102	-10.000000	31.058285	21.582405	10.065134	-177.228489	530.000000
LLowerLeg         0.000000	530.000000	0.000000	-4.243927	-3.275937	3.046484	460.000000
LFoot             0.000000	460.000000	0.000000	77.706358	-14.203819	16.055021	130.000000
LToes             0.000000	130.000000	0.000000	27.168776	-0.000000	-0.000086	100.000000
#Beginning of Data.
[DaveRoot]
#Fr	Tx	Ty	Tz	Rx	Ry	Rz	SF
103	19.914578	-2.286467	-40.094585	0.206834	0.836937	-3.376447	1.000000	
104	19.282854	-1.818320	-40.798408	0.134715	0.808629	-3.516427	1.000000	
105	18.729001	-1.830002	-41.764405	0.540122	0.679124	-3.605158	1.000000	
106	18.343213	-1.595223	-42.087692	0.349454	0.703458	-3.700008	1.000000	
[Spine1]
#Fr	Tx	Ty	Tz	Rx	Ry	Rz	SF
103	0.000000	0.000000	0.000000	-0.056060	-0.307583	-1.521172	1.000000	
104	0.000000	0.000000	0.000000	0.423181	-0.480054	-1.523193	1.000000	
105	0.000000	0.000000	0.000000	-0.246680	-0.254652	-1.511634	1.000000	
106	0.000000	0.000000	0.000000	0.267074	-0.442604	-1.501077	1.000000	
[Spine2]
#Fr	Tx	Ty	Tz	Rx	Ry	Rz	SF
103	0.000000	0.000000	0.000000	-0.056060	-0.307583	-1.521172	1.000000	
104	0.000000	0.000000	0.000000	0.423181	-0.480054	-1.523193	1.000000	
105	0.000000	0.000000	0.000000	-0.246680	-0.254652	-1.511634	1.000000	
106	0.000000	0.000000	0.000000	0.267074	-0.442604	-1.501077	1.000000	
[Spine3]
#Fr	Tx	Ty	Tz	Rx	Ry	Rz	SF
103	0.000000	0.000000	0.000000	-0.056060	-0.307583	-1.521172	1.000000	
104	0.000000	0.000000	0.000000	0.423181	-0.480054	-1.523193	1.000000	
105	0.000000	0.000000	0.000000	-0.246680	-0.254652	-1.511634	1.000000	
106	0.000000	0.000000	0.000000	0.267074	-0.442604	-1.501077	1.000000	
[Spine4]
#Fr	Tx	Ty	Tz	Rx	Ry	Rz	SF
103	0.000000	0.000000	0.000000	-0.056060	-0.307583	-1.521172	1.000000	
104	0.000000	0.000000	0.000000	0.423181	-0.480054	-1.523193	1.000000	
105	0.000000	0.000000	0.000000	-0.246680	-0.254652	-1.511634	1.000000	
106	0.000000	0.000000	0.000000	0.267074	-0.442604	-1.501077	1.000000	
[Neck]
#Fr	Tx	Ty	Tz	Rx	Ry	Rz	SF
103	0.000000	0.000000	0.000000	2.607675	-7.818037	8.825717	1.000000	
104	0.000000	0.000000	0.000000	0.820761	-7.820558	8.503143	1.000000	
105	0.000000	0.000000	0.000000	3.491448	-8.927284	9.156668	1.000000	
106	0.000000	0.000000	0.000000	1.632606	-8.651523	8.778632	1.000000	
[Head]
#Fr	Tx	Ty	Tz	Rx	Ry	Rz	SF
103	0.000000	0.000000	0.000000	2.607675	-7.818037	8.825717	1.000000	
104	0.000000	0.000000	0.000000	0.820761	-7.820558	8.503143	1.000000	
105	0.000000	0.000000	0.000000	3.491448	-8.927284	9.156668	1.000000	
106	0.000000	0.000000	0.000000	1.632606	-8.651523	8.778632	1.000000	
[LClavicle]
#Fr	Tx	Ty	Tz	Rx	Ry	Rz	SF
103	0.000000	0.000000	0.000000	13.327232	1.228706	-7.801800	1.000000	
104	0.000000	0.000000	0.000000	7.931334	0.852402	-8.724542	1.000000	
105	0.000000	0.000000	0.000000	15.373635	1.312766	-7.392638	1.000000	
106	0.000000	0.000000	0.000000	9.608306	0.882596	-7.828612	1.000000	
[LUpperArm]
#Fr	Tx	Ty	Tz	Rx	Ry	Rz	SF
103	0.000000	0.000000	0.000000	22.571357	31.402163	-32.600428	1.000000	
104	0.000000	0.000000	0.000000	36.416925	35.545503	-26.628651	1.000000	
105	0.000000	0.000000	0.000000	16.813185	28.646732	-37.783881	1.000000	
106	0.000000	0.000000	0.000000	31.001880	33.490028	-32.650107	1.000000	
[LLowerArm]
#Fr	Tx	Ty	Tz	Rx	Ry	Rz	SF
103	0.000000	0.000000	0.000000	4.597173	0.000000	0.000000	1.000000	
104	0.000000	0.000000	0.000000	-8.483327	-0.000000	0.000000	1.000000	
105	0.000000	0.000000	0.000000	14.258275	0.000000	0.000000	1.000000	
106	0.000000	0.000000	0.000000	-1.683705	0.000000	0.000000	1.000000	
[LHand]
#Fr	Tx	Ty	Tz	Rx	Ry	Rz	SF
103	0.000000	0.000000	0.000000	9.529814	-0.000000	-0.000000	1.000000	
104	0.000000	0.000000	0.000000	18.561328	-0.000000	-0.000000	1.000000	
105	0.000000	0.000000	0.000000	2.668455	-0.000000	-0.000000	1.000000	
106	0.000000	0.000000	0.000000	14.179129	-0.000000	-0.000000	1.000000	
[RClavicle]
#Fr	Tx	Ty	Tz	Rx	Ry	Rz	SF
103	0.000000	0.000000	0.000000	6.140251	-0.770939	6.942911	1.000000	
104	0.000000	0.000000	0.000000	4.447371	-0.634115	7.912338	1.000000	
105	0.000000	0.000000	0.000000	6.446910	-0.857487	7.358328	1.000000	
106	0.000000	0.000000	0.000000	4.779905	-0.691901	8.031364	1.000000	
[RUpperArm]
#Fr	Tx	Ty	Tz	Rx	Ry	Rz	SF
103	0.000000	0.000000	0.000000	21.032067	-6.641433	50.574215	1.000000	
104	0.000000	0.000000	0.000000	25.518538	-10.158051	47.880790	1.000000	
105	0.000000	0.000000	0.000000	21.114845	-9.644735	51.848496	1.000000	
106	0.000000	0.000000	0.000000	25.456627	-12.575385	48.798036	1.000000	
[RLowerArm]
#Fr	Tx	Ty	Tz	Rx	Ry	Rz	SF
103	0.000000	0.000000	0.000000	21.723269	0.000000	0.000000	1.000000	
104	0.000000	0.000000	0.000000	19.480678	0.000000	0.000000	1.000000	
105	0.000000	0.000000	0.000000	21.258136	0.000000	0.000000	1.000000	
106	0.000000	0.000000	0.000000	19.290905	0.000000	0.000000	1.000000	
[RHand]
#Fr	Tx	Ty	Tz	Rx	Ry	Rz	SF
103	0.000000	0.000000	0.000000	10.380476	-8.249213	-5.951119	1.000000	
104	0.000000	0.000000	0.000000	11.186141	-6.538034	-5.153524	1.000000	
105	0.000000	0.000000	0.000000	9.638413	-7.050958	-3.880088	1.000000	
106	0.000000	0.000000	0.000000	10.519270	-5.559167	-3.447451	1.000000	
[RUpperLeg]
#Fr	Tx	Ty	Tz	Rx	Ry	Rz	SF
103	0.000000	0.000000	0.000000	6.910775	-9.910386	3.733330	1.000000	
104	0.000000	0.000000	0.000000	6.753958	-9.940664	3.909908	1.000000	
105	0.000000	0.000000	0.000000	7.162330	-10.096006	4.219929	1.000000	
106	0.000000	0.000000	0.000000	6.887190	-10.010821	4.269494	1.000000	
[RLowerLeg]
#Fr	Tx	Ty	Tz	Rx	Ry	Rz	SF
103	0.000000	0.000000	0.000000	-14.134331	-0.000000	0.000000	1.000000	
104	0.000000	0.000000	0.000000	-14.175381	0.000000	0.000000	1.000000	
105	0.000000	0.000000	0.000000	-14.432328	0.000000	0.000000	1.000000	
106	0.000000	0.000000	0.000000	-14.355602	-0.000000	0.000000	1.000000	
[RFoot]
#Fr	Tx	Ty	Tz	Rx	Ry	Rz	SF
103	0.000000	0.000000	0.000000	5.924651	-1.036802	-12.991713	1.000000	
104	0.000000	0.000000	0.000000	5.844698	-0.762925	-12.827666	1.000000	
105	0.000000	0.000000	0.000000	5.844299	-0.565495	-12.657894	1.000000	
106	0.000000	0.000000	0.000000	5.685367	-0.614160	-12.578908	1.000000	
[RToes]
#Fr	Tx	Ty	Tz	Rx	Ry	Rz	SF
103	0.000000	0.000000	0.000000	0.766681	-0.000000	0.000000	1.000000	
104	0.000000	0.000000	0.000000	0.662314	-0.000000	0.000000	1.000000	
105	0.000000	0.000000	0.000000	0.741751	-0.000000	0.000000	1.000000	
106	0.000000	0.000000	0.000000	0.903128	-0.000000	0.000000	1.000000	
[LUpperLeg]
#Fr	Tx	Ty	Tz	Rx	Ry	Rz	SF
103	0.000000	0.000000	0.000000	0.935391	1.988281	2.226904	1.000000	
104	0.000000	0.000000	0.000000	0.798953	2.182424	2.394215	1.000000	
105	0.000000	0.000000	0.000000	1.166902	2.205683	2.652460	1.000000	
106	0.000000	0.000000	0.000000	0.932272	2.368413	2.715223	1.000000	
[LLowerLeg]
#Fr	Tx	Ty	Tz	Rx	Ry	Rz	SF
103	0.000000	0.000000	0.000000	3.226696	-0.000000	-0.000000	1.000000	
104	0.000000	0.000000	0.000000	3.372997	-0.000000	-0.000000	1.000000	
105	0.000000	0.000000	0.000000	3.489958	-0.000000	-0.000000	1.000000	
106	0.000000	0.000000	0.000000	3.591453	-0.000000	-0.000000	1.000000	
[LFoot]
#Fr	Tx	Ty	Tz	Rx	Ry	Rz	SF
103	0.000000	0.000000	0.000000	-3.473326	3.231508	-0.533787	1.000000	
104	0.000000	0.000000	0.000000	-3.633726	2.924026	-0.470256	1.000000	
105	0.000000	0.000000	0.000000	-3.799505	3.302455	-0.312650	1.000000	
106	0.000000	0.000000	0.000000	-3.893381	3.085480	-0.281538	1.000000	
[LToes]
#Fr	Tx	Ty	Tz	Rx	Ry	Rz	SF
103	0.000000	0.000000	0.000000	2.177446	0.000000	-0.000000	1.000000	
104	0.000000	0.000000	0.000000	1.946907	0.000000	-0.000000	1.000000	
105	0.000000	0.000000	0.000000	2.285364	0.000000	-0.000000	1.000000	
106	0.000000	0.000000	0.000000	2.118322	0.000000	-0.000000	1.000000	
